<?xml version="1.0" encoding="UTF-8" standalone="no"?>
<!-- Created with Inkscape (http://www.inkscape.org/) -->

<svg
   width="81.6782mm"
   height="92.21595mm"
   viewBox="0 0 81.6782 92.215951"
   version="1.1"
   id="svg5"
   inkscape:version="1.2.2 (732a01da63, 2022-12-09)"
   sodipodi:docname="otl.svg"
   xml:space="preserve"
   xmlns:inkscape="http://www.inkscape.org/namespaces/inkscape"
   xmlns:sodipodi="http://sodipodi.sourceforge.net/DTD/sodipodi-0.dtd"
   xmlns="http://www.w3.org/2000/svg"
   xmlns:svg="http://www.w3.org/2000/svg"><sodipodi:namedview
     id="namedview7"
     pagecolor="#505050"
     bordercolor="#eeeeee"
     borderopacity="1"
     inkscape:showpageshadow="0"
     inkscape:pageopacity="0"
     inkscape:pagecheckerboard="0"
     inkscape:deskcolor="#505050"
     inkscape:document-units="mm"
     showgrid="false"
     showguides="true"
     inkscape:zoom="1.6819304"
     inkscape:cx="285.38636"
     inkscape:cy="205.716"
     inkscape:window-width="1680"
     inkscape:window-height="979"
     inkscape:window-x="-8"
     inkscape:window-y="-8"
     inkscape:window-maximized="1"
     inkscape:current-layer="layer1" /><defs
     id="defs2" /><g
     inkscape:label="Слой 1"
     inkscape:groupmode="layer"
     id="layer1"><path
       style="fill:#5895e8;fill-opacity:1;stroke:none;stroke-width:0;stroke-dasharray:none"
       d="M 40.460269,90.315111 C 40.283563,90.200242 31.337779,85.159754 20.580748,79.114008 L 1.0225103,68.121759 1.0237357,45.565295 1.0249612,23.008833 21.01289,11.770501 41.00082,0.5321688 41.550522,0.81521062 C 41.852855,0.97088372 50.857744,6.0262738 61.561371,12.049413 L 81.02251,23.000572 v 22.56556 22.565564 L 77.287571,70.23542 C 53.496273,83.635973 41.148939,90.53894 40.982782,90.532164 c -0.110678,-0.0049 -0.34581,-0.102184 -0.52252,-0.217053 z"
       id="path543" /><path
       style="fill:none;fill-opacity:1;stroke:none;stroke-width:0.594555"
       d="M 103.73607,318.15895 C 78.073729,303.31984 45.037535,284.23133 30.322301,275.74003 L 3.5673295,260.30129 3.380562,217.55022 C 3.27784,194.03713 3.376362,155.53283 3.5995043,131.98512 L 4.0052141,89.171097 77.127775,46.963767 C 117.34518,23.749736 150.59215,4.6759697 151.00991,4.577618 c 0.68324,-0.1608506 34.5727,19.208044 119.2153,68.135313 l 28.83591,16.668466 v 85.505993 85.506 l -43.10523,24.87791 c -67.79028,39.12474 -104.12691,59.86783 -104.87327,59.86783 -0.37826,0 -21.6842,-12.14108 -47.34655,-26.98018 z"
       id="path2017"
       transform="scale(0.26458333)" /><g
       style="fill:#ffffff"
       id="g3855"
       transform="matrix(1.2593367,0,0,1.2593367,8.2517474,12.983994)"><g
         id="g3843"><path
           d="m 19.56,6.29 a 17.94,17.94 0 0 0 0,35.87 h 0.8 V 27.94 c 0,-1.06 0.81,-2.42 1.88,-2.42 h 15.2 c 0,-0.59 0.06,-1 0.06,-1.32 A 18,18 0 0 0 19.56,6.29 Z m 14.32,16.4 H 29.26 A 26.74,26.74 0 0 0 26.72,11.93 14.52,14.52 0 0 1 33.88,22.69 Z M 17.51,10.9 v 11.79 h -4.1 c 0.31,-5.62 2.08,-10.06 4.1,-11.79 z m 0,14.86 v 11.78 c -2,-1.73 -3.79,-6.15 -4.1,-11.78 z m 4.1,-3.07 V 10.9 c 2,1.73 3.8,6.17 4.1,11.79 z M 12.39,11.93 A 27.62,27.62 0 0 0 9.86,22.69 H 5.21 A 14.48,14.48 0 0 1 12.39,11.93 Z M 5.22,26.27 H 9.87 A 26.74,26.74 0 0 0 12.39,37 14.5,14.5 0 0 1 5.22,26.27 Z"
           fill-rule="evenodd"
           id="path3837" /><path
           d="M 47.5,28.56 H 25.73 a 2.5,2.5 0 0 0 -2.5,2.5 v 12.15 a 2.5,2.5 0 0 0 2.5,2.5 H 47.5 A 2.5,2.5 0 0 0 50,43.21 V 31.06 a 2.5,2.5 0 0 0 -2.5,-2.5 z M 28.66,43.21 a 2.92,2.92 0 0 0 -2.84,-3 H 25.74 V 34 a 2.93,2.93 0 0 0 3,-2.84 V 31.09 H 44.55 A 2.91,2.91 0 0 0 47.42,34 h 0.08 v 6.25 a 2.93,2.93 0 0 0 -3,2.86 v 0.09 z"
           fill-rule="evenodd"
           id="path3839" /><circle
           cx="36.610001"
           cy="36.919998"
           r="4.1999998"
           id="circle3841" /></g></g></g></svg>
