<?xml version="1.0" encoding="UTF-8" standalone="no"?>
<!-- Created with Inkscape (http://www.inkscape.org/) -->

<svg
   width="81.6782mm"
   height="92.21595mm"
   viewBox="0 0 81.6782 92.215951"
   version="1.1"
   id="svg5"
   inkscape:version="1.2.2 (732a01da63, 2022-12-09)"
   sodipodi:docname="repair-mechanism-svgrepo-com.svg"
   xml:space="preserve"
   xmlns:inkscape="http://www.inkscape.org/namespaces/inkscape"
   xmlns:sodipodi="http://sodipodi.sourceforge.net/DTD/sodipodi-0.dtd"
   xmlns="http://www.w3.org/2000/svg"
   xmlns:svg="http://www.w3.org/2000/svg"><sodipodi:namedview
     id="namedview7"
     pagecolor="#505050"
     bordercolor="#eeeeee"
     borderopacity="1"
     inkscape:showpageshadow="0"
     inkscape:pageopacity="0"
     inkscape:pagecheckerboard="0"
     inkscape:deskcolor="#505050"
     inkscape:document-units="mm"
     showgrid="false"
     showguides="true"
     inkscape:zoom="1.6819304"
     inkscape:cx="285.68364"
     inkscape:cy="158.15161"
     inkscape:window-width="1680"
     inkscape:window-height="979"
     inkscape:window-x="-8"
     inkscape:window-y="-8"
     inkscape:window-maximized="1"
     inkscape:current-layer="layer1" /><defs
     id="defs2" /><g
     inkscape:label="Слой 1"
     inkscape:groupmode="layer"
     id="layer1"><path
       style="fill:#5895e8;fill-opacity:1;stroke:none;stroke-width:0;stroke-dasharray:none"
       d="M 40.460269,90.315111 C 40.283563,90.200242 31.337779,85.159754 20.580748,79.114008 L 1.0225103,68.121759 1.0237357,45.565295 1.0249612,23.008833 21.01289,11.770501 41.00082,0.5321688 41.550522,0.81521062 C 41.852855,0.97088372 50.857744,6.0262738 61.561371,12.049413 L 81.02251,23.000572 v 22.56556 22.565564 L 77.287571,70.23542 C 53.496273,83.635973 41.148939,90.53894 40.982782,90.532164 c -0.110678,-0.0049 -0.34581,-0.102184 -0.52252,-0.217053 z"
       id="path543" /><path
       style="fill:none;fill-opacity:1;stroke:none;stroke-width:0.594555"
       d="M 103.73607,318.15895 C 78.073729,303.31984 45.037535,284.23133 30.322301,275.74003 L 3.5673295,260.30129 3.380562,217.55022 C 3.27784,194.03713 3.376362,155.53283 3.5995043,131.98512 L 4.0052141,89.171097 77.127775,46.963767 C 117.34518,23.749736 150.59215,4.6759697 151.00991,4.577618 c 0.68324,-0.1608506 34.5727,19.208044 119.2153,68.135313 l 28.83591,16.668466 v 85.505993 85.506 l -43.10523,24.87791 c -67.79028,39.12474 -104.12691,59.86783 -104.87327,59.86783 -0.37826,0 -21.6842,-12.14108 -47.34655,-26.98018 z"
       id="path2017"
       transform="scale(0.26458333)" /><g
       style="fill:#ffffff"
       id="g1965"
       transform="matrix(0.84267838,0,0,0.84267838,11.473647,14.621727)"><g
         id="g1956"
         style="fill:#ffffff">
	<path
   d="M 64.419,59.675 C 63.034,58.857 61.442,58.758 60.032,59.229 L 50.796,53.77 c 0.123,-1.098 0.819,-2.085 1.939,-2.525 1.684,-0.673 2.03,-2.29 0.777,-3.597 -1.252,-1.312 -1.151,-3.342 0.222,-4.523 1.368,-1.185 1.182,-2.826 -0.438,-3.65 -1.607,-0.83 -2.178,-2.782 -1.259,-4.35 0.919,-1.56 0.196,-3.056 -1.59,-3.312 -1.793,-0.262 -2.968,-1.93 -2.607,-3.705 0.363,-1.776 -0.801,-2.955 -2.582,-2.619 -1.784,0.336 -3.426,-0.865 -3.668,-2.656 -0.232,-1.799 -1.718,-2.534 -3.292,-1.639 -1.571,0.892 -3.521,0.299 -4.326,-1.323 -0.803,-1.625 -2.448,-1.843 -3.646,-0.477 -1.203,1.355 -3.239,1.426 -4.526,0.148 -1.289,-1.268 -2.916,-0.942 -3.606,0.733 -0.689,1.674 -2.595,2.403 -4.226,1.623 -1.635,-0.787 -3.065,0.049 -3.174,1.857 -0.109,1.808 -1.674,3.113 -3.478,2.899 C 9.52,26.446 8.442,27.7 8.925,29.441 9.404,31.191 8.349,32.936 6.578,33.316 4.81,33.7 4.196,35.235 5.216,36.734 c 1.025,1.499 0.593,3.483 -0.96,4.426 -1.55,0.938 -1.629,2.593 -0.174,3.677 1.456,1.081 1.691,3.104 0.526,4.491 -1.159,1.39 -0.697,2.983 1.03,3.533 1.721,0.55 2.606,2.389 1.955,4.079 -0.645,1.701 0.308,3.054 2.119,3.011 1.814,-0.036 3.244,1.412 3.181,3.226 -0.065,1.807 1.277,2.778 2.976,2.153 1.705,-0.623 3.528,0.292 4.055,2.019 0.53,1.731 2.112,2.217 3.516,1.069 1.407,-1.14 3.429,-0.871 4.489,0.596 1.059,1.465 2.719,1.41 3.676,-0.125 0.96,-1.538 2.957,-1.943 4.441,-0.901 1.478,1.038 3.023,0.447 3.435,-1.313 0.408,-1.764 2.167,-2.79 3.901,-2.286 1.74,0.507 3.013,-0.554 2.828,-2.356 -0.098,-0.926 0.208,-1.783 0.769,-2.408 l 9.499,5.611 c 0.273,1.464 1.133,2.812 2.514,3.629 2.531,1.501 5.808,0.661 7.309,-1.88 1.489,-2.536 0.654,-5.806 -1.882,-7.31 z M 42.886,49.096 36.016,45.034 c -0.051,-2.211 -1.193,-4.344 -3.235,-5.55 -2.235,-1.323 -4.917,-1.157 -6.963,0.166 l 3.796,2.245 c 1.345,0.794 1.768,2.568 0.938,3.962 -0.824,1.398 -2.579,1.887 -3.927,1.093 L 22.83,44.705 c -0.175,2.423 0.974,4.856 3.214,6.18 2.039,1.209 4.457,1.177 6.421,0.157 l 6.629,3.919 c -1.789,1.704 -4.02,3.002 -6.58,3.657 -7.979,2.055 -16.135,-2.771 -18.185,-10.746 -2.051,-7.979 2.772,-16.137 10.751,-18.185 7.979,-2.048 16.136,2.772 18.187,10.752 0.763,2.97 0.572,5.96 -0.381,8.657 z m 3.323,1.959 -1.387,-0.821 c 1.22,-3.2 1.51,-6.783 0.593,-10.349 C 43.063,30.723 33.689,25.183 24.526,27.533 15.361,29.887 9.82,39.262 12.174,48.425 14.531,57.586 23.9,63.126 33.063,60.773 36.224,59.957 38.937,58.3 41.059,56.122 l 1.407,0.828 c -2.354,2.521 -5.42,4.432 -9.007,5.354 C 23.434,64.884 13.217,58.846 10.64,48.819 8.062,38.79 14.104,28.574 24.129,26 c 10.025,-2.577 20.246,3.459 22.819,13.49 1.031,3.994 0.673,8.006 -0.739,11.565 z m 17.911,14.644 -2.452,1.378 -2.416,-1.426 0.03,-2.811 2.449,-1.377 2.418,1.423 z m -22.977,-50.173 1.243,0.782 c 1.036,0.651 1.916,2.184 1.96,3.406 l 0.055,1.469 c 0.043,1.222 1.056,2 2.246,1.729 l 1.436,-0.327 c 1.19,-0.271 2.899,0.189 3.793,1.021 l 1.079,1.002 c 0.892,0.832 2.158,0.667 2.811,-0.367 l 0.782,-1.246 c 0.647,-1.035 2.183,-1.915 3.405,-1.959 l 1.47,-0.054 c 1.218,-0.044 1.995,-1.055 1.729,-2.247 L 62.819,17.3 c -0.271,-1.192 0.189,-2.899 1.024,-3.793 l 1.002,-1.08 c 0.832,-0.894 0.668,-2.158 -0.367,-2.812 L 63.232,8.833 C 62.201,8.181 61.321,6.649 61.273,5.427 l -0.051,-1.47 c -0.048,-1.221 -1.056,-2 -2.246,-1.728 L 57.538,2.553 C 56.348,2.824 54.639,2.365 53.745,1.533 L 52.667,0.53 C 51.772,-0.301 50.509,-0.138 49.855,0.896 L 49.072,2.142 C 48.42,3.177 46.887,4.057 45.667,4.101 l -1.469,0.054 c -1.223,0.044 -2.001,1.056 -1.729,2.248 l 0.324,1.434 c 0.271,1.191 -0.185,2.899 -1.02,3.793 l -1.002,1.079 c -0.826,0.902 -0.662,2.168 0.372,2.817 z M 52.811,6.542 c 3.335,0 6.031,2.701 6.031,6.031 0,3.332 -2.696,6.031 -6.031,6.031 -3.33,0 -6.031,-2.7 -6.031,-6.031 -10e-4,-3.328 2.702,-6.031 6.031,-6.031 z"
   id="path1954"
   style="fill:#ffffff" />
</g></g></g></svg>
