<?xml version="1.0" encoding="UTF-8" standalone="no"?>
<!-- Uploaded to: SVG Repo, www.svgrepo.com, Generator: SVG Repo Mixer Tools -->

<svg
   fill="#c6c6c6"
   width="800px"
   height="800px"
   viewBox="0 0 32 32"
   version="1.1"
   id="svg6"
   sodipodi:docname="robot-outline-in-a-circle-svgrepo-com.svg"
   xml:space="preserve"
   inkscape:version="1.2.2 (732a01da63, 2022-12-09)"
   xmlns:inkscape="http://www.inkscape.org/namespaces/inkscape"
   xmlns:sodipodi="http://sodipodi.sourceforge.net/DTD/sodipodi-0.dtd"
   xmlns="http://www.w3.org/2000/svg"
   xmlns:svg="http://www.w3.org/2000/svg"
   xmlns:rdf="http://www.w3.org/1999/02/22-rdf-syntax-ns#"
   xmlns:cc="http://creativecommons.org/ns#"
   xmlns:dc="http://purl.org/dc/elements/1.1/"><defs
     id="defs10" /><sodipodi:namedview
     id="namedview8"
     pagecolor="#505050"
     bordercolor="#eeeeee"
     borderopacity="1"
     inkscape:showpageshadow="0"
     inkscape:pageopacity="0"
     inkscape:pagecheckerboard="0"
     inkscape:deskcolor="#505050"
     showgrid="false"
     inkscape:zoom="0.59"
     inkscape:cx="535.59322"
     inkscape:cy="584.74576"
     inkscape:window-width="1680"
     inkscape:window-height="979"
     inkscape:window-x="-8"
     inkscape:window-y="-8"
     inkscape:window-maximized="1"
     inkscape:current-layer="svg6" /><title
     id="title2">telegram</title><path
     d="M 15.996186,0.94000005 C 7.6941862,0.96000005 0.9711862,7.6949999 0.9711862,16 c 0,8.317 6.742,15.06 15.0599998,15.06 8.318,0 15.06,-6.742 15.06,-15.06 0,-8.3050001 -6.723,-15.03999995 -15.023,-15.05999995 h -0.002 z"
     id="path4-3"
     sodipodi:nodetypes="csssscc" /><g
     style="fill:#c6c6c6"
     id="g156"
     transform="matrix(0.34942602,0,0,0.34942602,1.3505031,1.1213698)"><g
       style="fill:#ffffff;stroke:#ffffff;stroke-width:0.00024"
       id="g2878"
       transform="matrix(3.4924167,0,0,3.4924167,-0.05229173,0.36515938)"
       clip-path="none"><g
         id="SVGRepo_bgCarrier"
         stroke-width="0"
         style="fill:#ffffff" /><g
         id="SVGRepo_tracerCarrier"
         stroke-linecap="round"
         stroke-linejoin="round"
         style="fill:#ffffff" /><g
         id="SVGRepo_iconCarrier"
         style="fill:#ffffff"><path
           d="m 14.1254,13 h -4 v 2 h 4 z"
           fill="#ffffff"
           id="path2856"
           style="fill:#ffffff" /><path
           fill-rule="evenodd"
           clip-rule="evenodd"
           d="m 8.12537,13 c 1.10457,0 2.00003,-0.8954 2.00003,-2 0,-1.10457 -0.89546,-2 -2.00003,-2 -1.10457,0 -2,0.89543 -2,2 0,1.1046 0.89543,2 2,2 z m 0,-1.5 c 0.27614,0 0.5,-0.2239 0.5,-0.5 0,-0.2761 -0.22386,-0.5 -0.5,-0.5 -0.27615,0 -0.5,0.2239 -0.5,0.5 0,0.2761 0.22385,0.5 0.5,0.5 z"
           fill="#ffffff"
           id="path2858"
           style="fill:#ffffff" /><path
           fill-rule="evenodd"
           clip-rule="evenodd"
           d="m 18.1254,11 c 0,1.1046 -0.8955,2 -2,2 -1.1046,0 -2,-0.8954 -2,-2 0,-1.10457 0.8954,-2 2,-2 1.1045,0 2,0.89543 2,2 z m -1.5,0 c 0,0.2761 -0.2239,0.5 -0.5,0.5 -0.2762,0 -0.5,-0.2239 -0.5,-0.5 0,-0.2761 0.2238,-0.5 0.5,-0.5 0.2761,0 0.5,0.2239 0.5,0.5 z"
           fill="#ffffff"
           id="path2860"
           style="fill:#ffffff" /><path
           fill-rule="evenodd"
           clip-rule="evenodd"
           d="M 2.74884,14.6663 C 3.73056,16.6421 5.76939,18 8.12537,18 h 8.00003 c 2.44,0 4.5398,-1.4565 5.4775,-3.5475 0.7693,-0.5432 1.2717,-1.4392 1.2717,-2.4525 0,-1.0133 -0.5024,-1.9093 -1.2717,-2.45247 C 20.6652,7.45651 18.5654,6 16.1254,6 H 8.12537 C 5.76939,6 3.73056,7.3579 2.74884,9.33375 1.78448,9.83263 1.12537,10.8393 1.12537,12 c 0,1.1607 0.65911,2.1674 1.62347,2.6663 z M 8.12537,8 h 8.00003 c 1.3834,0 2.6028,0.70234 3.3211,1.76991 0.2762,0.68939 0.4281,1.44199 0.4281,2.23009 0,0.7881 -0.1519,1.5407 -0.4281,2.2301 C 18.7282,15.2977 17.5088,16 16.1254,16 H 8.12537 c -2.20914,0 -4,-1.7909 -4,-4 0,-2.20914 1.79086,-4 4,-4 z"
           fill="#ffffff"
           id="path2862"
           style="fill:#ffffff" /></g></g></g><metadata
     id="metadata1351"><rdf:RDF><cc:Work
         rdf:about=""><dc:title>telegram</dc:title></cc:Work></rdf:RDF></metadata></svg>
