<?xml version="1.0" encoding="UTF-8" standalone="no"?>
<!-- Created with Inkscape (http://www.inkscape.org/) -->

<svg
   width="81.6782mm"
   height="92.21595mm"
   viewBox="0 0 81.6782 92.215951"
   version="1.1"
   id="svg5"
   inkscape:version="1.2.2 (732a01da63, 2022-12-09)"
   sodipodi:docname="round-the-clock-support.svg"
   xml:space="preserve"
   xmlns:inkscape="http://www.inkscape.org/namespaces/inkscape"
   xmlns:sodipodi="http://sodipodi.sourceforge.net/DTD/sodipodi-0.dtd"
   xmlns="http://www.w3.org/2000/svg"
   xmlns:svg="http://www.w3.org/2000/svg"><sodipodi:namedview
     id="namedview7"
     pagecolor="#505050"
     bordercolor="#eeeeee"
     borderopacity="1"
     inkscape:showpageshadow="0"
     inkscape:pageopacity="0"
     inkscape:pagecheckerboard="0"
     inkscape:deskcolor="#505050"
     inkscape:document-units="mm"
     showgrid="false"
     showguides="true"
     inkscape:zoom="1.6819304"
     inkscape:cx="164.98899"
     inkscape:cy="211.66155"
     inkscape:window-width="1680"
     inkscape:window-height="979"
     inkscape:window-x="-8"
     inkscape:window-y="-8"
     inkscape:window-maximized="1"
     inkscape:current-layer="layer1" /><defs
     id="defs2" /><g
     inkscape:label="Слой 1"
     inkscape:groupmode="layer"
     id="layer1"><path
       style="fill:#5895e8;fill-opacity:1;stroke:none;stroke-width:0;stroke-dasharray:none"
       d="M 40.460269,90.315111 C 40.283563,90.200242 31.337779,85.159754 20.580748,79.114008 L 1.0225103,68.121759 1.0237357,45.565295 1.0249612,23.008833 21.01289,11.770501 41.00082,0.5321688 41.550522,0.81521062 C 41.852855,0.97088372 50.857744,6.0262738 61.561371,12.049413 L 81.02251,23.000572 v 22.56556 22.565564 L 77.287571,70.23542 C 53.496273,83.635973 41.148939,90.53894 40.982782,90.532164 c -0.110678,-0.0049 -0.34581,-0.102184 -0.52252,-0.217053 z"
       id="path543" /><path
       style="fill:none;fill-opacity:1;stroke:none;stroke-width:0.594555"
       d="M 103.73607,318.15895 C 78.073729,303.31984 45.037535,284.23133 30.322301,275.74003 L 3.5673295,260.30129 3.380562,217.55022 C 3.27784,194.03713 3.376362,155.53283 3.5995043,131.98512 L 4.0052141,89.171097 77.127775,46.963767 C 117.34518,23.749736 150.59215,4.6759697 151.00991,4.577618 c 0.68324,-0.1608506 34.5727,19.208044 119.2153,68.135313 l 28.83591,16.668466 v 85.505993 85.506 l -43.10523,24.87791 c -67.79028,39.12474 -104.12691,59.86783 -104.87327,59.86783 -0.37826,0 -21.6842,-12.14108 -47.34655,-26.98018 z"
       id="path2017"
       transform="scale(0.26458333)" /><g
       style="fill:#ffffff;stroke:#ffffff;stroke-width:0.75"
       id="g1223"
       transform="matrix(1.3058657,0,0,1.3058657,8.2537813,14.731706)"><g
         id="SVGRepo_bgCarrier"
         stroke-width="0" /><g
         id="SVGRepo_tracerCarrier"
         stroke-linecap="round"
         stroke-linejoin="round" /><g
         id="SVGRepo_iconCarrier"><path
           d="M 7.90625,1.96875 C 7.863281,1.976563 7.820313,1.988281 7.78125,2 7.316406,2.105469 6.988281,2.523438 7,3 v 9 h 9 c 0.359375,0.0039 0.695313,-0.183594 0.878906,-0.496094 0.179688,-0.3125 0.179688,-0.695312 0,-1.007812 C 16.695313,10.183594 16.359375,9.996094 16,10 H 10.3125 C 14.101563,6.292969 19.277344,4 25,4 36.609375,4 46,13.390625 46,25 46,36.609375 36.609375,46 25,46 13.390625,46 4,36.609375 4,25 4,21.527344 4.855469,18.257813 6.34375,15.375 L 4.5625,14.46875 C 2.929688,17.625 2,21.207031 2,25 2,37.691406 12.308594,48 25,48 37.691406,48 48,37.691406 48,25 48,12.308594 37.691406,2 25,2 18.773438,2 13.140625,4.503906 9,8.53125 V 3 C 9.011719,2.710938 8.894531,2.433594 8.6875,2.238281 8.476563,2.039063 8.191406,1.941406 7.90625,1.96875 Z M 25,5 c -0.550781,0 -1,0.449219 -1,1 0,0.550781 0.449219,1 1,1 0.550781,0 1,-0.449219 1,-1 0,-0.550781 -0.449219,-1 -1,-1 z m 9.5,2.53125 c -0.550781,0 -1,0.449219 -1,1 0,0.550781 0.449219,1 1,1 0.550781,0 1,-0.449219 1,-1 0,-0.550781 -0.449219,-1 -1,-1 z M 41.46875,14.5 c -0.550781,0 -1,0.449219 -1,1 0,0.550781 0.449219,1 1,1 0.550781,0 1,-0.449219 1,-1 0,-0.550781 -0.449219,-1 -1,-1 z M 18.375,16.90625 c -2.773437,0 -4.75,1.808594 -4.75,4.40625 v 0.03125 h 2.0625 V 21.3125 c 0,-1.503906 1.039063,-2.5 2.59375,-2.5 1.453125,0 2.5625,0.960938 2.5625,2.25 0,1.035156 -0.457031,1.785156 -2.34375,3.75 L 13.75,29.75 v 1.59375 h 9.5 V 29.375 h -6.46875 v -0.15625 l 3.15625,-3.1875 C 22.300781,23.640625 23,22.429688 23,20.9375 23,18.613281 21.050781,16.90625 18.375,16.90625 Z M 31.59375,17.25 c -2.511719,3.761719 -4.613281,7.039063 -5.875,9.34375 V 28.625 h 6.875 v 2.71875 H 34.6875 V 28.625 h 1.96875 V 26.65625 H 34.6875 V 17.25 Z M 32.5,19.1875 h 0.125 v 7.53125 H 27.8125 V 26.5625 c 1.660156,-2.882812 3.292969,-5.355469 4.6875,-7.375 z M 6,24 c -0.550781,0 -1,0.449219 -1,1 0,0.550781 0.449219,1 1,1 0.550781,0 1,-0.449219 1,-1 0,-0.550781 -0.449219,-1 -1,-1 z m 38,0 c -0.550781,0 -1,0.449219 -1,1 0,0.550781 0.449219,1 1,1 0.550781,0 1,-0.449219 1,-1 0,-0.550781 -0.449219,-1 -1,-1 z M 8.53125,33.5 c -0.550781,0 -1,0.449219 -1,1 0,0.550781 0.449219,1 1,1 0.550781,0 1,-0.449219 1,-1 0,-0.550781 -0.449219,-1 -1,-1 z m 32.9375,0 c -0.550781,0 -1,0.449219 -1,1 0,0.550781 0.449219,1 1,1 0.550781,0 1,-0.449219 1,-1 0,-0.550781 -0.449219,-1 -1,-1 z M 15.5,40.46875 c -0.550781,0 -1,0.449219 -1,1 0,0.550781 0.449219,1 1,1 0.550781,0 1,-0.449219 1,-1 0,-0.550781 -0.449219,-1 -1,-1 z m 19,0 c -0.550781,0 -1,0.449219 -1,1 0,0.550781 0.449219,1 1,1 0.550781,0 1,-0.449219 1,-1 0,-0.550781 -0.449219,-1 -1,-1 z M 25,43 c -0.550781,0 -1,0.449219 -1,1 0,0.550781 0.449219,1 1,1 0.550781,0 1,-0.449219 1,-1 0,-0.550781 -0.449219,-1 -1,-1 z"
           id="path1210" /></g></g></g></svg>
