<?xml version="1.0" encoding="UTF-8"?>
<!DOCTYPE svg PUBLIC "-//W3C//DTD SVG 1.1//EN" "http://www.w3.org/Graphics/SVG/1.1/DTD/svg11.dtd">
<!-- Creator: CorelDRAW -->
<svg xmlns="http://www.w3.org/2000/svg" xml:space="preserve" width="83mm" height="39mm" version="1.1" style="shape-rendering:geometricPrecision; text-rendering:geometricPrecision; image-rendering:optimizeQuality; fill-rule:evenodd; clip-rule:evenodd"
viewBox="0 0 8300 3900"
 xmlns:xlink="http://www.w3.org/1999/xlink"
 xmlns:xodm="http://www.corel.com/coreldraw/odm/2003">
 <defs>
  <style type="text/css">
   <![CDATA[
    .fil0 {fill:#5895E8}
   ]]>
  </style>
 </defs>
 <g id="Layer_x0020_1">
  <metadata id="CorelCorpID_0Corel-Layer"/>
  <polygon class="fil0" points="1208.77,1680.19 1214.54,1645.57 1221.02,1611.36 1228.28,1577.45 1236.29,1543.87 1245.09,1510.65 1254.57,1477.79 1264.91,1445.16 1275.97,1412.96 1287.8,1381.02 1300.61,1349.03 1314.65,1316.7 1329.77,1284.22 1346.1,1251.51 1363.49,1218.69 1382.04,1185.58 1401.72,1152.35 1422.48,1118.91 1444.34,1085.29 1467.35,1051.45 1491.44,1017.38 1513.21,987.82 1505.97,988.86 1472.97,994.42 1439.87,1000.85 1406.57,1008.2 1373.17,1016.37 1339.59,1025.48 1305.91,1035.44 1272.04,1046.33 1238.05,1058.11 1203.86,1070.78 1169.45,1084.42 1135.38,1098.58 1102.63,1112.95 1071.17,1127.53 1041.02,1142.27 1012.09,1157.25 984.5,1172.38 958.17,1187.7 933.16,1203.17 909.35,1218.84 886.83,1234.64 865.54,1250.59 845.56,1266.61 826.79,1282.77 809.32,1299 793.03,1315.36 777.77,1332.01 763.11,1349.17 749.45,1366.3 736.81,1383.35 725.28,1400.2 714.72,1416.95 705.18,1433.56 696.63,1449.99 689.11,1466.27 682.44,1482.48 676.77,1498.54 671.96,1514.49 668.11,1530.26 665.08,1546.02 662.93,1561.68 661.63,1577.29 661.23,1592.31 661.75,1604.96 663.35,1617.41 666.1,1630.47 670.15,1644.2 675.49,1658.67 682.23,1673.71 690.42,1689.46 700.93,1707.2 716.26,1732.67 730.57,1758.15 743.1,1782.66 753.87,1806.42 762.72,1829.65 769.6,1852.65 774.16,1875.86 775.83,1898.49 774.88,1918.11 772.26,1936.39 767.7,1954.57 761.13,1972.3 752.53,1989.41 741.95,2005.61 729.42,2020.8 715.29,2034.59 699.46,2047.2 682.36,2058.21 663.87,2067.69 644.52,2075.22 624.62,2080.93 604.37,2084.8 584.09,2087 562.63,2087.67 533.11,2085.95 502.89,2080.52 473.66,2071.53 446.2,2059.22 420.74,2044.15 397.36,2026.54 375.93,2006.8 355.87,1984.45 343.73,1967.82 333.73,1952.73 324.39,1937.2 315.81,1921.28 307.93,1905.09 300.76,1888.5 294.28,1871.55 288.59,1854.35 283.5,1836.9 279.16,1819 275.49,1800.88 272.55,1782.51 270.23,1763.88 268.62,1744.88 267.66,1725.7 267.38,1705.92 268.38,1670.39 271.35,1634.6 276.18,1598.97 283.03,1563.49 291.72,1528.31 302.37,1493.33 314.88,1458.61 329.27,1424.16 345.48,1390.05 363.51,1356.23 383.36,1322.66 405.06,1289.37 428.46,1256.47 453.65,1223.83 480.54,1191.51 509.23,1159.41 539.45,1127.82 571.25,1097.1 604.43,1067.51 638.95,1038.96 674.83,1011.52 712.05,985.17 750.57,959.94 790.41,935.76 831.5,912.74 873.86,890.79 917.48,869.94 962.35,850.2 1008.36,831.58 1055.66,814 1104.13,797.53 1153.27,782.27 1170.18,777.29 1187.43,772.46 1205.02,767.76 1223.07,763.15 1241.53,758.67 1260.33,754.32 1279.47,750.06 1299.18,745.9 1319.25,741.86 1339.66,737.95 1360.45,734.14 1381.77,730.42 1403.43,726.83 1425.51,723.31 1447.94,719.92 1470.9,716.6 1494.27,713.42 1517.97,710.34 1542.05,707.36 1566.64,704.45 1591.64,701.66 1617.06,698.95 1642.85,696.38 1669.15,693.86 1695.87,691.47 1722.94,689.19 1750.41,686.98 1778.41,684.85 1806.75,682.87 1835.57,680.94 1864.76,679.14 1893.73,677.43 1908.94,676.41 1924.63,675.31 1940.25,674.21 1971.82,671.86 1987.74,670.61 2003.66,669.39 2019.68,668.1 2035.78,666.82 2051.76,665.52 2067.77,664.18 2100.14,661.41 2116.31,659.98 2132.56,658.55 2344.18,639.63 2214.02,808.85 2194.79,834.15 2175.96,859.18 2157.65,883.91 2139.73,908.37 2122.3,932.53 2105.26,956.45 2088.7,980.03 2072.57,1003.36 2056.89,1026.44 2041.62,1049.23 2026.85,1071.68 2012.47,1093.87 1998.58,1115.77 1985.08,1137.4 1972.08,1158.69 1959.5,1179.73 1947.37,1200.47 1935.67,1220.94 1924.44,1241.07 1913.6,1260.95 1903.25,1280.52 1893.33,1299.74 1883.9,1318.67 1874.83,1337.34 1866.29,1355.62 1858.15,1373.65 1850.5,1391.33 1843.25,1408.73 1836.44,1425.84 1830.04,1442.62 1824.1,1459.07 1818.43,1475.61 1812.93,1492.59 1807.56,1510.03 1802.38,1527.84 1797.36,1546.02 1792.54,1564.66 1787.85,1583.78 1783.36,1603.24 1779.02,1623.19 1774.86,1643.54 1770.85,1664.25 1767.07,1685.38 1763.41,1706.98 1759.98,1728.93 1756.7,1751.34 1753.62,1774.13 1750.68,1797.39 1747.96,1821.03 1745.38,1845.04 1743.03,1869.48 1740.82,1894.35 1738.84,1919.58 1737,1945.22 1735.38,1971.28 1733.91,1997.79 1732.66,2024.67 1731.55,2051.96 1730.69,2079.59 1729.95,2107.69 1729.47,2136.17 1729.12,2165.07 1728.99,2194.4 1728.97,2217.05 1729.05,2239.58 1729.2,2262.01 1729.45,2284.34 1729.73,2306.47 1730.17,2328.49 1730.65,2350.39 1731.23,2372.18 1731.86,2393.89 1732.61,2415.41 1733.39,2436.77 1734.31,2458.03 1735.27,2479.23 1736.33,2500.22 1737.46,2521.05 1738.71,2541.85 1739.99,2562.57 1741.37,2583.06 1742.83,2603.34 1744.41,2623.63 1746.02,2643.82 1747.74,2663.71 1749.37,2681.7 2072.72,2377.58 2465.55,2022.84 2502.12,1989.64 2537.88,1956.92 2572.87,1924.67 2607.1,1892.85 2640.55,1861.45 2673.29,1830.53 2705.18,1800.09 2736.4,1770.03 2766.74,1740.54 2796.36,1711.46 2825.18,1682.81 2853.32,1654.59 2880.6,1626.92 2907.14,1599.63 2932.92,1572.82 2957.95,1546.47 2982.13,1520.61 3005.62,1495.22 3028.26,1470.3 3050.23,1445.78 3071.33,1421.83 3091.68,1398.34 3111.26,1375.29 3130.06,1352.74 3148.06,1330.68 3165.32,1309.08 3181.75,1288.01 3197.48,1267.36 3212.37,1247.27 3226.49,1227.67 3239.86,1208.57 3252.37,1190.1 3270.21,1162.55 3286.8,1135.45 3302.16,1108.81 3316.33,1082.59 3329.26,1056.86 3341.01,1031.54 3351.56,1006.75 3360.95,982.36 3369.15,958.51 3376.24,935.05 3382.17,912.12 3387.02,889.6 3390.76,867.61 3393.4,846.03 3394.99,824.88 3395.57,803.89 3395.4,793.28 3394.9,782.11 3394.01,770.68 3392.8,758.98 3391.18,747.14 3389.18,734.91 3386.79,722.47 3384.07,709.87 3380.89,697.07 3377.35,684.01 3373.36,670.69 3368.99,657.12 3364.21,643.47 3358.99,629.48 3353.36,615.24 3347.14,600.4 3338.5,580.25 3330.47,559.89 3323.43,540.27 3317.51,521.44 3312.57,503.1 3308.86,485 3306.44,467.16 3305.55,449.12 3306.78,427.41 3310.54,405.77 3316.78,384.56 3325.57,363.98 3336.72,344.35 3350.09,325.88 3365.33,308.67 3382.41,292.66 3400.91,278.05 3420.79,265 3441.96,253.67 3464.49,244.15 3488.04,236.72 3512.39,231.42 3537.19,228.33 3563.26,227.26 3596.86,229.28 3630.58,235.43 3662.89,245.62 3693.51,259.62 3721.71,277.13 3747.37,297.45 3770.57,320.35 3791.56,345.54 3802.33,361.11 3811.64,376.42 3820.04,392.24 3827.75,408.67 3834.65,425.73 3840.82,443.17 3846.3,461.2 3851.18,479.81 3855.39,499.05 3858.97,518.73 3861.97,538.96 3864.41,559.76 3866.29,581.22 3867.6,603.21 3868.37,625.85 3868.6,649.24 3868.19,672.68 3867.12,696.31 3865.31,720.08 3862.9,743.96 3859.72,768.03 3855.91,792.13 3851.39,816.36 3846.21,840.72 3840.3,865.2 3833.76,889.77 3826.52,914.48 3818.65,939.25 3810.06,964.19 3800.84,989.21 3790.91,1014.35 3780.34,1039.69 3768.56,1066.06 3755.22,1093.44 3740.46,1121.38 3724.39,1149.94 3706.84,1179.24 3688,1209.07 3667.76,1239.64 3646.18,1270.89 3623.17,1302.85 3598.87,1335.49 3573.14,1368.92 3546.1,1403.01 3517.66,1437.89 3487.86,1473.51 3456.67,1509.87 3424.28,1546.86 3407.27,1565.99 3389.74,1585.48 3371.66,1605.28 3353.09,1625.4 3333.93,1645.95 3314.26,1666.79 3294.04,1688.02 3273.28,1709.6 3251.93,1731.56 3230.07,1753.85 3207.66,1776.51 3184.72,1799.52 3161.21,1822.93 3137.18,1846.66 3112.58,1870.76 3087.47,1895.2 3061.77,1920.05 3035.56,1945.26 3008.73,1970.87 2981.39,1996.8 2953.49,2023.11 2925.08,2049.77 2896.07,2076.83 2866.57,2104.2 2836.47,2131.98 2805.86,2160.13 2774.64,2188.68 2742.89,2217.56 2710.59,2246.8 2677.79,2276.42 2644.36,2306.42 2610.5,2336.71 2574.72,2368.69 2539.05,2400.71 2503.29,2432.87 2467.57,2465.13 2431.79,2497.56 2396.03,2530.05 2360.21,2562.73 2324.45,2595.49 2288.59,2628.42 2252.74,2661.43 2216.86,2694.61 2180.99,2727.86 2145.07,2761.31 2109.14,2794.84 2073.21,2828.51 2037.3,2862.28 2001.29,2896.21 1965.32,2930.27 1929.27,2964.47 1893.28,2998.75 1857.22,3033.18 1821.19,3067.74 1785.07,3102.44 1749.02,3137.21 1712.88,3172.17 1676.76,3207.23 1640.6,3242.44 1604.46,3277.73 1568.26,3313.21 1532.1,3348.74 1495.9,3384.45 1315.87,3562.56 1215.43,2349.54 1212.34,2311.16 1209.49,2274.48 1206.76,2239.48 1204.3,2206.07 1201.99,2174.38 1199.9,2144.3 1197.97,2115.8 1196.29,2089 1194.74,2063.88 1193.43,2040.31 1192.28,2018.3 1191.4,1997.92 1190.66,1979.18 1190.17,1961.86 1189.87,1946.09 1189.81,1931.71 1190.23,1894.88 1191.44,1858.23 1193.38,1821.96 1196.1,1785.97 1199.56,1750.4 1203.8,1715.12 "/>
  <path class="fil0" d="M7872.13 1833.97l-380.4 -0.51 -175.09 1191.83c-9.85,67.14 -34.2,120.2 -70.55,152.77 -36.31,32.56 -81.1,49.46 -131.94,49.46 -51.23,0 -91.56,-17.54 -118.44,-50.59 -26.92,-33.04 -36.51,-84.5 -26.56,-152.12l175.12 -1191.83 -380.4 -0.52c-58.45,-0.06 -102.6,-13.37 -127.17,-37.63 -24.92,-24.6 -34.55,-58.77 -29.1,-99.38 5.59,-41.8 26.41,-76 60.06,-100.41 33.71,-24.8 79.2,-36.89 136.53,-36.86l1108.23 1.51c60.51,0.06 103.75,13.41 129.03,38.4 24.93,24.67 34.9,59.15 29.51,99.38 -5.42,40.65 -26.11,74.11 -59.47,99.29 -33.3,24.76 -82.16,37.28 -139.36,37.21z"/>
  <path class="fil0" d="M3929.64 1723.71l528.1 967.79 143.39 -976c9.34,-63.42 30.7,-110.77 63.81,-142.44 33.14,-31.66 73.98,-47.63 122.87,-47.57 50.11,0.06 87.06,15.78 111.67,47.51 24.22,31.76 31.63,79.53 22.29,142.95l-189.56 1290.38c-21.17,144.01 -94.25,215.74 -219.68,215.58 -31.28,-0.03 -58.74,-4.3 -82.67,-13.12 -23.61,-8.44 -45.23,-22.2 -64.55,-40.97 -18.95,-18.35 -36.15,-40.55 -51.32,-65.41 -15.18,-24.86 -30.29,-50.46 -45.24,-76.86l-513.34 -956.27 -141.22 961.11c-9.2,62.65 -31.4,110 -66.56,142.05 -35.16,32.02 -76.8,48.03 -124.5,47.96 -49.31,-0.06 -86.62,-16.17 -111.51,-48.66 -24.9,-32.53 -32.76,-79.92 -23.68,-141.8l185.94 -1265.58c7.92,-53.83 20.5,-95.86 37.4,-126.4 19.76,-33.62 48.28,-61.08 85.88,-82.41 37.57,-20.98 76.38,-31.6 116.48,-31.57 31.28,0.07 56.98,5.07 78.02,14.63 21.08,9.59 38.72,23 53.16,39.43 14.4,16.45 28.16,37.5 41.93,63.87 13.82,26.02 28.26,53.15 42.89,81.8zm2339.43 89.22l-785.58 -1.09 -59.22 402.98 723.47 1.03c53.32,0.03 91.3,11.58 114.04,34.17 22.68,22.93 31.51,52.77 26.02,90.2 -5.49,37.41 -22.74,67.6 -51.87,91.24 -29.48,23.26 -71.32,35.03 -124.99,34.97l-723.46 -1 -68.59 466.83 812.42 1.12c54.93,0.03 94.42,12.35 118.51,36.44 24.47,24.48 33.36,56.59 27.49,96.73 -5.71,38.91 -23.93,70.28 -55.59,94.66 -31.15,24.03 -74.3,36.19 -129.16,36.13l-947.51 -1.32c-75.74,-0.1 -128.35,-16.23 -156.87,-48.34 -28.55,-32.12 -37.37,-84.15 -26.88,-155.56l181.21 -1233.47c7.03,-47.77 20.41,-86.71 39.66,-116.87 19.24,-30.12 45.77,-52.29 79.46,-65.99 33.65,-13.66 75.16,-20.5 124.47,-20.47l920.63 1.26c55.72,0.03 95.24,11.99 118.69,35.32 23.36,23.73 32.47,54.31 26.89,92.51 -5.71,38.92 -23.9,69.87 -54.22,93.55 -30.28,23.26 -73.37,35.03 -129.02,34.97z"/>
  <polygon class="fil0" points="1797.59,3307.71 8097.71,3305 7866.47,3549.78 1548.4,3553.2 "/>
 </g>
</svg>
